<?xml version="1.0" encoding="iso-8859-1"?>
<!-- Generator: Adobe Illustrator 19.0.0, SVG Export Plug-In . SVG Version: 6.00 Build 0)  -->
<svg version="1.1" id="Capa_1" xmlns="http://www.w3.org/2000/svg" xmlns:xlink="http://www.w3.org/1999/xlink" x="0px" y="0px"
	 viewBox="0 0 345 315" style="enable-background:new 0 0 461.192 461.192;" xml:space="preserve">
<g>
	<g>
		<path d="
        M 30 5 
        L 140 5 
        a 15 15 0 0 1 15 15 
        L 155 30 
        a 10 10 0 0 1 -10 10 
        a 90 90 1 0 0 -90 90 
        a 10 10 0 0 1 -10 10 
        L 30 140
        a 10 10 0 0 1 -10 -10
        L 20 15
        a 10 10 0 0 1 10 -10
        " style="stroke: black; fill: red" /> 
        <path d="
        M 200 5
        L 310 5
        a 15 15 0 0 1 15 15 
        L 325 130
        a 10 10 0 0 1 -10 10 
        L 300 140
        a 10 10 0 0 1 -10 -10
        a 90 90 1 0 0 -90 -90
        a 10 10 0 0 1 -10 -10
        L 190 15
        a 10 10 0 0 1 10 -10
        " style="stroke: black; fill: green" />
        <path d="
        M 30 175
        L 45 175
        a 10 10 0 0 1 10 10
        a 90 90 1 0 0 90 90
        a 10 10 0 0 1 10 10
        L 155 295
        a 15 15 0 0 1 -15 15
        L 30 310
        a 10 10 0 0 1 -10 -10
        L 20 185
        a 10 10 0 0 1 10 -10
        " style="stroke: black; fill: yellow" />
        <path d="
        M 300 175
        L 315 175
        a 10 10 0 0 1 10 10
        L 325 300
        a 10 10 0 0 1 -10 10
        L 205 310
        a 15 15 0 0 1 -15 -15
        L 190 285
        a 10 10 0 0 1 10 -10
        a 90 90 1 0 0 90 -90
        a 10 10 0 0 1 10 -10
        " style="stroke: black; fill: blue" /> 
        <!-- <path d="
        M 172.5 157.5
        L 0 157.5
        M 172.5 157.5
        L 172.5 0
        M 172.5 157.5
        M 172.5 40
        L 190 40
        L 190 75
        35
        " style="stroke: black; fill: blue" />  -->

        <rect x="77.5" y="62.5" rx="90" ry="90" width="190" height="190"
  style="fill:black;stroke:black;stroke-width:5;" />

	</g>
</g>
<g>
</g>
<g>
</g>
<g>
</g>
<g>
</g>
<g>
</g>
<g>
</g>
<g>
</g>
<g>
</g>
<g>
</g>
<g>
</g>
<g>
</g>
<g>
</g>
<g>
</g>
<g>
</g>
<g>
</g>
</svg>
